<svg xmlns="http://www.w3.org/2000/svg" viewBox="0 0 100 100">
  <polygon points="18,45 30,18 42,40" fill="#1A1A1A"/>
  <polygon points="58,40 70,18 82,45" fill="#1A1A1A"/>
  <polygon points="22,43 30,24 38,40" fill="#3D3D3D"/>
  <polygon points="62,40 70,24 78,43" fill="#3D3D3D"/>
  <circle cx="50" cy="55" r="28" fill="#2D2D2D"/>
  <ellipse cx="35" cy="62" rx="10" ry="8" fill="#3D3D3D" opacity="0.5"/>
  <ellipse cx="65" cy="62" rx="10" ry="8" fill="#3D3D3D" opacity="0.5"/>
  <ellipse cx="38" cy="52" rx="6" ry="7" fill="#C4E755"/>
  <ellipse cx="62" cy="52" rx="6" ry="7" fill="#C4E755"/>
  <ellipse cx="39" cy="53" rx="3.5" ry="5.5" fill="#1A1A1A"/>
  <ellipse cx="63" cy="53" rx="3.5" ry="5.5" fill="#1A1A1A"/>
  <circle cx="40.5" cy="50" r="1.5" fill="#FFF"/>
  <circle cx="64.5" cy="50" r="1.5" fill="#FFF"/>
  <ellipse cx="50" cy="62" rx="3" ry="2.5" fill="#4A4A4A"/>
  <path d="M46,66 Q50,69 54,66" fill="none" stroke="#555" stroke-width="1.2" stroke-linecap="round"/>
  <line x1="15" y1="56" x2="32" y2="58" stroke="#555" stroke-width="0.8" stroke-linecap="round"/>
  <line x1="15" y1="62" x2="32" y2="62" stroke="#555" stroke-width="0.8" stroke-linecap="round"/>
  <line x1="15" y1="68" x2="32" y2="66" stroke="#555" stroke-width="0.8" stroke-linecap="round"/>
  <line x1="68" y1="58" x2="85" y2="56" stroke="#555" stroke-width="0.8" stroke-linecap="round"/>
  <line x1="68" y1="62" x2="85" y2="62" stroke="#555" stroke-width="0.8" stroke-linecap="round"/>
  <line x1="68" y1="66" x2="85" y2="68" stroke="#555" stroke-width="0.8" stroke-linecap="round"/>
</svg>
