<svg xmlns="http://www.w3.org/2000/svg" viewBox="0 0 100 100">
  <polygon points="18,45 30,18 42,40" fill="#8B6B4E"/>
  <polygon points="58,40 70,18 82,45" fill="#8B6B4E"/>
  <polygon points="22,43 30,24 38,40" fill="#C4A882"/>
  <polygon points="62,40 70,24 78,43" fill="#C4A882"/>
  <circle cx="50" cy="55" r="28" fill="#C4A882"/>
  <!-- 虎斑条纹 -->
  <path d="M36,40 Q43,35 50,40 Q57,35 64,40" fill="none" stroke="#8B6B4E" stroke-width="2.5" stroke-linecap="round"/>
  <path d="M34,46 Q42,43 50,46 Q58,43 66,46" fill="none" stroke="#8B6B4E" stroke-width="2" stroke-linecap="round"/>
  <ellipse cx="35" cy="62" rx="10" ry="8" fill="#D4B896" opacity="0.6"/>
  <ellipse cx="65" cy="62" rx="10" ry="8" fill="#D4B896" opacity="0.6"/>
  <ellipse cx="38" cy="53" rx="6" ry="7" fill="#FFF"/>
  <ellipse cx="62" cy="53" rx="6" ry="7" fill="#FFF"/>
  <ellipse cx="39" cy="54" rx="3.5" ry="4" fill="#4A8FE7"/>
  <ellipse cx="63" cy="54" rx="3.5" ry="4" fill="#4A8FE7"/>
  <circle cx="40.5" cy="52" r="1.5" fill="#FFF"/>
  <circle cx="64.5" cy="52" r="1.5" fill="#FFF"/>
  <ellipse cx="50" cy="63" rx="3" ry="2.5" fill="#E87D8B"/>
  <path d="M46,67 Q50,71 54,67" fill="none" stroke="#8B6B4E" stroke-width="1.2" stroke-linecap="round"/>
  <line x1="15" y1="57" x2="32" y2="59" stroke="#A09080" stroke-width="0.8" stroke-linecap="round"/>
  <line x1="15" y1="63" x2="32" y2="63" stroke="#A09080" stroke-width="0.8" stroke-linecap="round"/>
  <line x1="15" y1="69" x2="32" y2="67" stroke="#A09080" stroke-width="0.8" stroke-linecap="round"/>
  <line x1="68" y1="59" x2="85" y2="57" stroke="#A09080" stroke-width="0.8" stroke-linecap="round"/>
  <line x1="68" y1="63" x2="85" y2="63" stroke="#A09080" stroke-width="0.8" stroke-linecap="round"/>
  <line x1="68" y1="67" x2="85" y2="69" stroke="#A09080" stroke-width="0.8" stroke-linecap="round"/>
</svg>
