<svg xmlns="http://www.w3.org/2000/svg" viewBox="0 0 100 100">
  <polygon points="18,45 30,18 42,40" fill="#2D2D2D"/>
  <polygon points="58,40 70,18 82,45" fill="#E8870B"/>
  <polygon points="22,43 30,24 38,40" fill="#F5B895"/>
  <polygon points="62,40 70,24 78,43" fill="#F5B895"/>
  <circle cx="50" cy="55" r="28" fill="#FFF8E7"/>
  <ellipse cx="36" cy="54" rx="8" ry="10" fill="#F4900C" opacity="0.6"/>
  <ellipse cx="64" cy="58" rx="8" ry="9" fill="#2D2D2D" opacity="0.5"/>
  <ellipse cx="38" cy="52" rx="6" ry="7" fill="#FFF"/>
  <ellipse cx="62" cy="52" rx="6" ry="7" fill="#FFF"/>
  <ellipse cx="39" cy="53" rx="3.5" ry="4" fill="#6B8E3A"/>
  <ellipse cx="63" cy="53" rx="3.5" ry="4" fill="#4A8FE7"/>
  <circle cx="40.5" cy="51" r="1.5" fill="#FFF"/>
  <circle cx="64.5" cy="51" r="1.5" fill="#FFF"/>
  <ellipse cx="50" cy="62" rx="3" ry="2.5" fill="#E87D8B"/>
  <path d="M46,66 Q50,70 54,66" fill="none" stroke="#C4A050" stroke-width="1.2" stroke-linecap="round"/>
  <line x1="15" y1="56" x2="32" y2="58" stroke="#D0C0A0" stroke-width="0.8" stroke-linecap="round"/>
  <line x1="15" y1="62" x2="32" y2="62" stroke="#D0C0A0" stroke-width="0.8" stroke-linecap="round"/>
  <line x1="15" y1="68" x2="32" y2="66" stroke="#D0C0A0" stroke-width="0.8" stroke-linecap="round"/>
  <line x1="68" y1="58" x2="85" y2="56" stroke="#D0C0A0" stroke-width="0.8" stroke-linecap="round"/>
  <line x1="68" y1="62" x2="85" y2="62" stroke="#D0C0A0" stroke-width="0.8" stroke-linecap="round"/>
  <line x1="68" y1="66" x2="85" y2="68" stroke="#D0C0A0" stroke-width="0.8" stroke-linecap="round"/>
</svg>
