<svg xmlns="http://www.w3.org/2000/svg" viewBox="0 0 100 100">
  <polygon points="18,45 30,18 42,40" fill="#6B4226"/>
  <polygon points="58,40 70,18 82,45" fill="#6B4226"/>
  <polygon points="22,43 30,24 38,40" fill="#D4A894"/>
  <polygon points="62,40 70,24 78,43" fill="#D4A894"/>
  <circle cx="50" cy="55" r="28" fill="#F5EFE6"/>
  <!-- 暹罗重点色区域 -->
  <ellipse cx="50" cy="62" rx="20" ry="16" fill="#6B4226" opacity="0.25"/>
  <ellipse cx="38" cy="52" rx="6" ry="7" fill="#FFF"/>
  <ellipse cx="62" cy="52" rx="6" ry="7" fill="#FFF"/>
  <ellipse cx="39" cy="53" rx="3.5" ry="4" fill="#4A8FE7"/>
  <ellipse cx="63" cy="53" rx="3.5" ry="4" fill="#4A8FE7"/>
  <circle cx="40.5" cy="51" r="1.5" fill="#FFF"/>
  <circle cx="64.5" cy="51" r="1.5" fill="#FFF"/>
  <ellipse cx="50" cy="63" rx="3" ry="2.5" fill="#D4A894"/>
  <path d="M46,67 Q50,70 54,67" fill="none" stroke="#C4A090" stroke-width="1.2" stroke-linecap="round"/>
  <line x1="15" y1="57" x2="32" y2="59" stroke="#C0B8B0" stroke-width="0.8" stroke-linecap="round"/>
  <line x1="15" y1="63" x2="32" y2="63" stroke="#C0B8B0" stroke-width="0.8" stroke-linecap="round"/>
  <line x1="15" y1="69" x2="32" y2="67" stroke="#C0B8B0" stroke-width="0.8" stroke-linecap="round"/>
  <line x1="68" y1="59" x2="85" y2="57" stroke="#C0B8B0" stroke-width="0.8" stroke-linecap="round"/>
  <line x1="68" y1="63" x2="85" y2="63" stroke="#C0B8B0" stroke-width="0.8" stroke-linecap="round"/>
  <line x1="68" y1="67" x2="85" y2="69" stroke="#C0B8B0" stroke-width="0.8" stroke-linecap="round"/>
</svg>
