<svg xmlns="http://www.w3.org/2000/svg" viewBox="0 0 100 100">
  <polygon points="18,45 30,18 42,40" fill="#2D2D2D"/>
  <polygon points="58,40 70,18 82,45" fill="#2D2D2D"/>
  <polygon points="22,43 30,24 38,40" fill="#F5B895"/>
  <polygon points="62,40 70,24 78,43" fill="#F5B895"/>
  <circle cx="50" cy="55" r="28" fill="#F5F5F5"/>
  <!-- 奶牛斑块 -->
  <ellipse cx="38" cy="48" rx="9" ry="12" fill="#2D2D2D"/>
  <ellipse cx="64" cy="58" rx="7" ry="10" fill="#2D2D2D"/>
  <ellipse cx="38" cy="53" rx="6" ry="7" fill="#FFF"/>
  <ellipse cx="62" cy="53" rx="6" ry="7" fill="#C4E755"/>
  <ellipse cx="39" cy="54" rx="3.5" ry="4" fill="#2D2D2D"/>
  <ellipse cx="63" cy="54" rx="3.5" ry="4" fill="#2D2D2D"/>
  <circle cx="40.5" cy="52" r="1.5" fill="#FFF"/>
  <circle cx="64.5" cy="52" r="1.5" fill="#FFF"/>
  <ellipse cx="50" cy="63" rx="3" ry="2.5" fill="#E87D8B"/>
  <path d="M46,67 Q50,70 54,67" fill="none" stroke="#999" stroke-width="1.2" stroke-linecap="round"/>
  <line x1="15" y1="57" x2="32" y2="59" stroke="#CCC" stroke-width="0.8" stroke-linecap="round"/>
  <line x1="15" y1="63" x2="32" y2="63" stroke="#CCC" stroke-width="0.8" stroke-linecap="round"/>
  <line x1="15" y1="69" x2="32" y2="67" stroke="#CCC" stroke-width="0.8" stroke-linecap="round"/>
  <line x1="68" y1="59" x2="85" y2="57" stroke="#CCC" stroke-width="0.8" stroke-linecap="round"/>
  <line x1="68" y1="63" x2="85" y2="63" stroke="#CCC" stroke-width="0.8" stroke-linecap="round"/>
  <line x1="68" y1="67" x2="85" y2="69" stroke="#CCC" stroke-width="0.8" stroke-linecap="round"/>
</svg>
